<?xml version="1.0" encoding="utf-8"?>
<!-- Generator: Adobe Illustrator 23.0.1, SVG Export Plug-In . SVG Version: 6.00 Build 0)  -->
<svg version="1.1" xmlns="http://www.w3.org/2000/svg" xmlns:xlink="http://www.w3.org/1999/xlink" x="0px" y="0px"
	 viewBox="0 0 500 500" style="enable-background:new 0 0 500 500;" xml:space="preserve">
<style type="text/css">
	.st0{fill:#FFFFFF;stroke:#000000;stroke-width:2;stroke-miterlimit:10;}
	.st1{fill:#FFFFFF;}
	.st2{fill:none;stroke:#000000;stroke-width:9;stroke-miterlimit:10;}
	.st3{fill:#FFFFFF;stroke:#000000;stroke-width:9;stroke-miterlimit:10;}
</style>
<g id="Layer_1">
	<path class="st0" d="M35.78,363.24"/>
	<path class="st1" d="M386.36,34.64"/>
	<path class="st2" d="M384.46,59.75H173.08L156,59.92c-10.59,0.18-30.61,2.07-50.92,14.67c-28.15,17.45-39.04,44.4-44.81,58.68
		c-4.36,10.78-13.49,34.18-10.18,64.97c3.61,33.62,19.9,56.12,26.48,64.97c10.26,13.8,21.76,23.47,26.48,27.24
		c9.91,7.94,14.95,11.01,18.33,12.57c9.7,4.49,18.62,5.62,24.53,5.86"/>
</g>
<g id="Layer_2">
</g>
<g id="Layer_3">
	<ellipse class="st3" cx="78.07" cy="440.72" rx="31.86" ry="32.78"/>
	<ellipse class="st3" cx="303.04" cy="311.44" rx="31.86" ry="32.78"/>
	<ellipse class="st3" cx="416.32" cy="59.75" rx="31.86" ry="32.78"/>
	<ellipse class="st3" cx="173.08" cy="188.06" rx="31.86" ry="32.78"/>
</g>
<g id="Layer_4">
	<path class="st2" d="M271.18,311.44h-83.56c-41.72-2.55-41.72-2.55-41.72-2.55"/>
	<path class="st2" d="M109.93,440.7c105.93,0,184.01-0.43,212.46,0c5.38,0.08,18.32,0.34,33.24-5.65
		c15.46-6.2,25.61-16.11,32.59-23.05c4.8-4.77,15.37-16.04,24.44-33.53c15.19-29.29,16.04-56.43,16.3-69.16
		c0.22-10.74,0.41-27.61-6.11-48.2c-3.44-10.85-8.63-26.67-22.41-41.91c-19.61-21.7-43.33-27.57-50.92-29.34
		c-11.97-2.78-22.25-2.83-29.21-2.38l0,0l-103.38-0.21c-11.98,0.8-11.98,0.8-11.98,0.8"/>
</g>
</svg>
